<svg xmlns="http://www.w3.org/2000/svg" width="1000" height="997.517" viewBox="0 0 1000 997.517">
  <g id="layer1" transform="translate(-55.5 -1002.345)">
    <path id="path3078" d="M55.5,1002.345h997.517v538.489l-49.374,77.147,49.374,68.661v313.219H55.5v-507.63l30.859-35.488L55.5,1422.8Z" fill="#757d92"/>
    <path id="path3082" d="M249.14,1697.444V1540.835H414.96l17.791,23.192,18.379-23.192h601.887v145.809s-15.74,10.644-33.945,10.8H685.795l-20.058-24.687v24.687h-65.73V1655.3s-8.979,5.882-28.39,5.882H549.244v36.259h-99.52l-17.765-23.69-18.038,23.69Z" fill="#b0b8d0"/>
    <path id="path3080" d="M55.5,1422.8l37.393-87.177h64.668l21.221,48.833v-48.833h80.388l12.633,35.295,12.247-35.295H644.907v17.744s18.97-17.744,50.146-17.744l117.085.409,20.855,48.194v-48.6h67.273l18.515,27.683v-27.683h67.89v156.609H918.78l-17.744-27.773v27.773H802.2l-9.94-24.687H765.687l-9.778,24.687H688.881c-26.826,0-43.974-17.382-43.974-17.382v17.382H543.844l-20.058-24.687v24.687h-375.8l-9.933-24.687H111.561l-9.863,24.687H55.5Z" fill="#b0b8d0"/>
    <path id="path3046" d="M106.128,1354.929,55.693,1472.193H88.529l9.306-23.482h54.1l9.258,23.482h33.559l-50.387-117.264H106.128Zm18.66,27.291,16.49,41.033H108.25Z" fill="#757d92"/>
    <path id="path3048" d="M198.223,1472.173V1354.909l46.662.173,27.14,75.6,26.49-75.778H344.8v117.264H315.487v-86.405l-31.076,86.405H258.7l-31.162-86.405v86.405Z" fill="#757d92"/>
    <path id="path3050" d="M364.861,1472.173V1354.909h95.663v26.23H394.486V1401.2h64.5v24.687h-64.5v20.83h66.038v25.459Z" fill="#757d92"/>
    <path id="path3052" d="M477.5,1354.929v117.264h29.316v-41.66h12.344l35.15,41.66h35.825l-38.574-43.2a35.712,35.712,0,0,0,32.161-36.018c0-24.677-19.368-38.043-40.985-38.043H477.5Zm29.316,26.23h33.511c8.039,0,13.887,6.288,13.887,12.344,0,7.791-7.577,12.344-13.453,12.344H506.813v-24.687Z" fill="#757d92"/>
    <path id="path3054" d="M625.62,1472.173H595.687V1354.909H625.62Z" fill="#757d92"/>
    <path id="path3056" d="M696.6,1472.173h-6.461c-31.262,0-50.242-24.629-50.242-58.15,0-34.349,18.768-59.114,58.246-59.114h32.4v27.773H696.954c-16.026,0-27.36,12.507-27.36,31.63,0,22.71,12.96,32.248,31.63,32.248h7.715Z" fill="#757d92"/>
    <path id="path3058" d="M760.387,1354.929l-50.435,117.264h32.836l9.306-23.482h54.1l9.258,23.482H849.01l-50.387-117.264H760.387Zm18.66,27.291,16.49,41.033H762.508l16.539-41.033Z" fill="#757d92"/>
    <path id="path3060" d="M852.433,1472.173V1354.909h37.272l47.59,73.676v-73.676h29.316v117.264H930.545l-48.8-75.6v75.6Z" fill="#757d92"/>
    <path id="path3062" d="M269.2,1677.386V1560.122h95.663v26.23H298.823v20.058h64.5V1631.1h-64.5v20.83h66.038v25.459Z" fill="#757d92"/>
    <path id="path3064" d="M737.947,1677.386V1560.122h95.663v26.23H767.571v20.058h64.187V1631.1H767.571v20.83h66.038v25.459Z" fill="#757d92"/>
    <path id="path3066" d="M368.574,1677.386l46.578-57.909-47.687-59.355H404.4l28.4,36.693,28.5-36.693h35.488l-47.06,58.632,46.664,58.632H459.459l-27.575-36.115-26.905,36.115Z" fill="#757d92"/>
    <path id="path3068" d="M499.869,1560.141v117.264h30.088v-37.031h30.859c26.111,0,45.9-13.852,45.9-40.792,0-22.316-15.523-39.442-42.094-39.442H499.87Zm30.088,26.519h32.5c8.435,0,14.465,5.17,14.465,13.5,0,7.826-6,13.5-14.562,13.5h-32.4v-27Z" fill="#757d92"/>
    <path id="path3072" d="M619.448,1560.122v117.264h29.316v-41.66h12.344l35.15,41.66h35.825l-38.574-43.2a35.712,35.712,0,0,0,32.161-36.018c0-24.676-19.368-38.043-40.985-38.043H619.448Zm29.316,26.23h33.511c8.039,0,13.887,6.288,13.887,12.344,0,7.791-7.577,12.344-13.453,12.344H648.764Z" fill="#757d92"/>
    <path id="path3074" d="M847.187,1677.386v-25.459h58.671c8.681,0,12.44-4.691,12.44-9.836,0-4.93-3.747-9.913-12.44-9.913H879.345c-23.046,0-35.88-14.041-35.88-35.121,0-18.8,11.753-36.934,46-36.934h57.089l-12.344,26.384H884.835c-9.438,0-12.344,4.953-12.344,9.682,0,4.861,3.59,10.222,10.8,10.222h27.773c25.69,0,36.838,14.572,36.838,33.656,0,20.516-12.422,37.32-38.236,37.32Z" fill="#757d92"/>
    <path id="path3076" d="M954.784,1677.386v-25.459h58.671c8.681,0,12.44-4.691,12.44-9.836,0-4.93-3.747-9.913-12.44-9.913H986.942c-23.046,0-35.88-14.041-35.88-35.121,0-18.8,11.753-36.934,46-36.934h57.089l-12.344,26.384H992.432c-9.438,0-12.344,4.953-12.344,9.682,0,4.861,3.59,10.222,10.8,10.222h27.773c25.69,0,36.838,14.572,36.838,33.656,0,20.516-12.422,37.32-38.237,37.32Z" fill="#757d92"/>
  </g>
</svg>
