<?xml version="1.0" encoding="UTF-8"?>
<svg width="24px" height="24px" viewBox="0 0 24 24" version="1.1" xmlns="http://www.w3.org/2000/svg" xmlns:xlink="http://www.w3.org/1999/xlink">
    <!-- Generator: Sketch 57.1 (83088) - https://sketch.com -->
    <title>Group 443</title>
    <desc>Created with Sketch.</desc>
    <g id="Extra-1" stroke="none" stroke-width="1" fill="none" fill-rule="evenodd" stroke-linecap="round" stroke-linejoin="round">
        <g id="Icons" transform="translate(-192.000000, -2928.000000)" stroke="#7464E2">
            <g id="Group-443" transform="translate(192.000000, 2928.000000)">
                <path d="M23.5,12 C23.5,18.351 18.351,23.5 12,23.5 C5.648,23.5 0.5,18.351 0.5,12 C0.5,5.648 5.648,0.5 12,0.5 C18.351,0.5 23.5,5.648 23.5,12 L23.5,12 Z" id="Stroke-58"></path>
                <path d="M19.5,13 C19.5,17.143 16.142,20.5 12,20.5 C7.857,20.5 4.5,17.143 4.5,13" id="Stroke-59"></path>
                <path d="M18.5,10 C18.5,8.896 14.5,8.896 14.5,10" id="Stroke-60"></path>
                <path d="M9,9.5 C9,10.328 8.328,11 7.5,11 C6.671,11 6,10.328 6,9.5 C6,8.672 6.671,8 7.5,8 C8.328,8 9,8.672 9,9.5 L9,9.5 Z" id="Stroke-61"></path>
            </g>
        </g>
    </g>
</svg>