<?xml version="1.0" encoding="UTF-8"?>
<svg width="24px" height="22px" viewBox="0 0 24 22" version="1.1" xmlns="http://www.w3.org/2000/svg" xmlns:xlink="http://www.w3.org/1999/xlink">
    <!-- Generator: Sketch 57.1 (83088) - https://sketch.com -->
    <title>Group 769</title>
    <desc>Created with Sketch.</desc>
    <g id="Extra-2" stroke="none" stroke-width="1" fill="none" fill-rule="evenodd" stroke-linecap="round" stroke-linejoin="round">
        <g id="Icons" transform="translate(-984.000000, -4993.000000)" stroke="#7464E2">
            <g id="Group-769" transform="translate(984.000000, 4993.000000)">
                <path d="M11.5,15.5 L8.5,15.5 C6.913,15.5 5.628,14.764 5.521,13.204 C4.319,14.307 0.5,11.999 0.5,8.5 C0.5,5.001 3.72,2.665 5.008,3.421 C5.052,1.802 6.37,0.5 8,0.5 C8.901,0.5 9.7,0.905 10.25,1.534 C10.8,0.905 11.599,0.5 12.5,0.5 C13.792,0.5 14.884,1.321 15.306,2.467 C15.854,1.876 16.631,1.5 17.5,1.5 C19.156,1.5 20.5,2.843 20.5,4.5 C22.156,4.5 23.5,5.843 23.5,7.5 C23.5,8.401 23.095,9.2 22.465,9.75 C23.288,10.469 23.729,11.614 23.379,12.857 C23.125,13.764 22.411,14.512 21.522,14.822 C20.561,15.157 19.66,14.991 18.944,14.554 C18.714,15.783 17.736,16.741 16.5,16.949 L16.5,21.5 L13.5,21.5 L13.5,16.965 C13.5,15.052 15.052,13.5 16.965,13.5 L17,13.5" id="Stroke-9725"></path>
                <path d="M13.5225,17.585 C13.0765,17.849 12.5555,18 12.0005,18 C9.5005,18 8.4175,16.656 8.0005,15.5" id="Stroke-9726"></path>
                <path d="M22.5,10 C22.5,10 18.5,11.5 16,9" id="Stroke-9727"></path>
                <path d="M1,6.541 C1,6.541 5.5,6.041 6.5,8.541" id="Stroke-9728"></path>
                <path d="M10.5,1.5 L10.5,4 C10.5,4.828 11.172,5.5 12,5.5 C12.828,5.5 13.5,4.828 13.5,4" id="Stroke-9729"></path>
                <path d="M10.5,1.5 L10.5,4 C10.5,4.828 9.828,5.5 9,5.5 C8.172,5.5 7.5,4.828 7.5,4" id="Stroke-9730"></path>
                <path d="M9,15.5 C9,15.5 8.5,11 11.5,10" id="Stroke-9731"></path>
                <path d="M19.5,10 C19.5,10 20.5,8 19.5,6.5" id="Stroke-9732"></path>
            </g>
        </g>
    </g>
</svg>