<?xml version="1.0" encoding="UTF-8"?>
<svg width="24px" height="24px" viewBox="0 0 24 24" version="1.1" xmlns="http://www.w3.org/2000/svg" xmlns:xlink="http://www.w3.org/1999/xlink">
    <!-- Generator: Sketch 57.1 (83088) - https://sketch.com -->
    <title>Group 131</title>
    <desc>Created with Sketch.</desc>
    <g id="Basic" stroke="none" stroke-width="1" fill="none" fill-rule="evenodd" stroke-linecap="round" stroke-linejoin="round">
        <g id="Icons" transform="translate(0.000000, -1105.000000)" stroke="#7464E2">
            <g id="Group-131" transform="translate(0.000000, 1105.000000)">
                <path d="M21.4346,13 C21.4346,18.247 17.1816,22.5 11.9346,22.5 C6.6866,22.5 2.4346,18.247 2.4346,13 C2.4346,7.753 6.6866,3.5 11.9346,3.5 C17.1816,3.5 21.4346,7.753 21.4346,13 L21.4346,13 Z" id="Stroke-3093"></path>
                <path d="M6.5874,20.8472 L4.9344,22.5002" id="Stroke-3094"></path>
                <path d="M17.2793,20.8452 L18.9343,22.5002" id="Stroke-3095"></path>
                <polyline id="Stroke-3096" points="8.4346 13.5 12.4346 13.5 12.4346 7.5"></polyline>
                <path d="M1.9346,7.5 C0.3726,5.938 0.3726,3.562 1.9346,2 C3.4966,0.438 5.8726,0.438 7.4346,2" id="Stroke-3097"></path>
                <path d="M21.9346,7.5 C23.4966,5.938 23.4966,3.562 21.9346,2 C20.3726,0.438 17.9966,0.438 16.4346,2" id="Stroke-3098"></path>
            </g>
        </g>
    </g>
</svg>