<?xml version="1.0" encoding="UTF-8"?>
<svg width="22px" height="25px" viewBox="0 0 22 25" version="1.1" xmlns="http://www.w3.org/2000/svg" xmlns:xlink="http://www.w3.org/1999/xlink">
    <!-- Generator: Sketch 57.1 (83088) - https://sketch.com -->
    <title>Group 1041</title>
    <desc>Created with Sketch.</desc>
    <g id="Extra-2" stroke="none" stroke-width="1" fill="none" fill-rule="evenodd" stroke-linecap="round" stroke-linejoin="round">
        <g id="Icons" transform="translate(-1081.000000, -1727.000000)" stroke="#7464E2">
            <g id="Group-1041" transform="translate(1081.000000, 1728.000000)">
                <path d="M15.4873,2.875 C13.4763,2.875 11.6833,1.94 10.5083,0.479 L10.4913,0.479 C9.3163,1.94 7.5233,2.875 5.5123,2.875 C3.7533,2.875 2.1583,2.159 0.5003,1 L0.5003,15.813 C0.5003,15.813 1.9503,21.083 10.5003,23.479 C19.0503,21.083 20.5003,15.813 20.5003,15.813 L20.5003,1 C18.8413,2.159 17.2473,2.875 15.4873,2.875 L15.4873,2.875 Z" id="Stroke-230"></path>
                <polygon id="Stroke-232" points="15.5 9.5 12.5 9.5 12.5 6.5 8.5 6.5 8.5 9.5 5.5 9.5 5.5 13.5 8.5 13.5 8.5 16.5 12.5 16.5 12.5 13.5 15.5 13.5"></polygon>
            </g>
        </g>
    </g>
</svg>