<?xml version="1.0" encoding="UTF-8"?>
<svg width="24px" height="23px" viewBox="0 0 24 23" version="1.1" xmlns="http://www.w3.org/2000/svg" xmlns:xlink="http://www.w3.org/1999/xlink">
    <!-- Generator: Sketch 57.1 (83088) - https://sketch.com -->
    <title>Group 1010</title>
    <desc>Created with Sketch.</desc>
    <g id="Extra-2" stroke="none" stroke-width="1" fill="none" fill-rule="evenodd" stroke-linecap="round" stroke-linejoin="round">
        <g id="Icons" transform="translate(-1032.000000, -1585.000000)" stroke="#7464E2">
            <g id="Group-1010" transform="translate(1032.000000, 1585.000000)">
                <polyline id="Stroke-798" points="0.5 13.5 6.5 13.5 8 11.5 10 14.499 12.5 9.499 14.5 16.5 16 13.5 23.5 13.5"></polyline>
                <path d="M21.2549,11.499 C22.0149,9.894 22.4999,8.224 22.4999,6.574 C22.4999,-1.119 13.1839,-1.711 11.9999,5.981 C10.8169,-1.711 1.4999,-1.119 1.4999,7.165 C1.4999,8.665 1.8479,10.12 2.4109,11.499" id="Stroke-799"></path>
                <path d="M4.7305,15.499 C7.8165,19.624 12.0005,22.393 12.0005,22.393 C12.0005,22.393 15.7565,19.483 18.7765,15.499" id="Stroke-800"></path>
            </g>
        </g>
    </g>
</svg>