<?xml version="1.0" encoding="UTF-8"?>
<svg width="25px" height="24px" viewBox="0 0 25 24" version="1.1" xmlns="http://www.w3.org/2000/svg" xmlns:xlink="http://www.w3.org/1999/xlink">
    <!-- Generator: Sketch 57.1 (83088) - https://sketch.com -->
    <title>Group 387</title>
    <desc>Created with Sketch.</desc>
    <g id="Basic" stroke="none" stroke-width="1" fill="none" fill-rule="evenodd" stroke-linecap="round" stroke-linejoin="round">
        <g id="Icons" transform="translate(-287.000000, -2640.000000)" stroke="#7464E2">
            <g id="Group-387" transform="translate(288.000000, 2640.000000)">
                <path d="M18.999,23.499 C20.67,22.285 23.498,19.72 23.498,17.802 C23.498,16.247 22.365,15.317 21.271,15.317 C20.053,15.317 19.6,16.157 18.998,17.15 C18.397,16.157 17.943,15.317 16.726,15.317 C15.631,15.317 14.498,16.247 14.498,17.802 C14.498,19.72 17.326,22.285 18.998,23.499 L18.999,23.499 L18.999,23.499 Z" id="Stroke-1062"></path>
                <path d="M14.4658,13.3535 C13.6888,13.0955 12.4998,12.8205 11.9998,12.4995 L11.9998,9.9995 C11.9998,9.9995 13.4998,9.3805 13.4998,6.9995 C13.9998,6.9995 13.9998,4.9295 13.4998,4.9295 C13.4998,4.6945 14.2158,3.3215 13.8858,1.9995 C13.4128,0.0955 7.9168,0.0955 7.4438,1.9995 C5.0748,1.5255 6.4998,4.6815 6.4998,4.9995 C5.4998,4.9995 5.4998,6.9995 6.4998,6.9995 C6.4998,9.3805 7.9998,9.9995 7.9998,9.9995 L7.9998,12.4995 C4.9998,13.5565 1.7988,14.2555 1.3858,15.4995 C0.9128,16.9295 0.4998,19.4995 0.4998,19.4995 L11.4998,19.4995" id="Stroke-1063"></path>
            </g>
        </g>
    </g>
</svg>