<svg id="carraca" xmlns="http://www.w3.org/2000/svg" width="512" height="512" viewBox="0 0 512 512">
  <g id="Grupo_10" data-name="Grupo 10">
    <g id="Grupo_9" data-name="Grupo 9">
      <path id="Caminho_3" data-name="Caminho 3" d="M497.36,70a19.292,19.292,0,0,0-27.285-.032L238.582,300.845,155.06,210.132a19.3,19.3,0,1,0-28.392,26.14l97.126,105.481a19.273,19.273,0,0,0,13.784,6.22c.141.006.277.006.412.006a19.317,19.317,0,0,0,13.623-5.628L497.322,97.286A19.294,19.294,0,0,0,497.36,70Z" fill="#d4ef9b"/>
    </g>
  </g>
  <g id="Grupo_12" data-name="Grupo 12">
    <g id="Grupo_11" data-name="Grupo 11">
      <path id="Caminho_4" data-name="Caminho 4" d="M492.7,236.7a19.3,19.3,0,0,0-19.3,19.3c0,119.883-97.524,217.407-217.407,217.407S38.593,375.883,38.593,256,136.124,38.593,256,38.593A19.3,19.3,0,1,0,256,0C114.84,0,0,114.84,0,256S114.84,512,256,512,512,397.154,512,256A19.3,19.3,0,0,0,492.7,236.7Z" fill="#d4ef9b"/>
    </g>
  </g>
</svg>
