<svg xmlns="http://www.w3.org/2000/svg" width="22.833" height="22.825" viewBox="0 0 22.833 22.825"><g id="close" transform="translate(-8.584 -7.988)"><g id="Caminho_1" data-name="Caminho 1" fill="#945ef2"><path d="M29.09593963623047 30.0303840637207 28.74304962158203 29.67886352539063 9.647130012512207 10.65694427490234 9.291930198669434 10.30312442779541 9.646719932556152 9.948884010314941 10.55080032348633 9.046184539794922 10.90367984771729 8.69383430480957 11.25697040557861 9.045783996582031 30.35289001464844 28.06973457336426l.3555603027343679.3542194366455078L30.35288047790527 28.77817344665527 29.44879913330078 29.6788444519043 29.09593963623047 30.0303840637207z" stroke="none"/><path d="M29.09592056274414 29.32462501525879 30 28.42395401000977 10.90408039093018 9.400004386901855 10 10.30270385742188 29.09592056274414 29.32462501525879M29.09596061706543 30.73613357543945 28.39019012451172 30.03310394287109 9.294269561767578 11.01118469238281 8.583869934082031 10.30353450775146 9.293430328369141 9.595054626464844 10.197509765625 8.692354202270508 10.90328979492188 7.987664222717285l.70656013488769.7039003372192383L30.70577049255371 27.71551513671875l.7111186981201207.7084388732910192-.7111186981201207.7084407806396413L29.80168914794922 30.0330638885498 29.09596061706543 30.73613357543945z" stroke="none" fill="#945ef2"/></g><g id="Caminho_2" data-name="Caminho 2" transform="translate(0 -1.125)" fill="#945ef2"><path d="M10.90367984771729 31.23079109191895 10.55078983306885 30.87844085693359l-.9040794372558612-.9027099609375L9.291939735412598 29.62149047851563 9.647130012512207 29.26767158508301 28.74304962158203 10.24576091766357 29.09593963623047 9.894241333007813l.3528594970703125.351539611816408.9040813446044886.9006700515747088L30.70845031738281 11.50067138671875 30.35289001464844 11.85489082336426 11.25697040557861 30.87884140014648 10.90367984771729 31.23079109191895z" stroke="none"/><path d="M10.90408039093018 30.52462196350098 30 11.50067138671875 29.09592056274414 10.60000133514404 10 29.62191200256348l.9040803909301793.9027099609375M10.90328025817871 31.93697166442871 10.197509765625 31.23226165771484l-.9040794372558594-.9027099609375L8.583869934082031 29.62107086181641 9.294269561767578 28.91343116760254 28.39019012451172 9.891521453857422 29.09596061706543 9.188490867614746l.7057285308837891.7030706405639666.9040813446044922.900670051574707.7111186981201207.7084398269653303-.7111186981201207.7084398269653303L11.60984992980957 31.23306083679199 10.90328025817871 31.93697166442871z" stroke="none" fill="#945ef2"/></g></g></svg>