<svg id="_x37_e38527c-c439-4ac8-ab59-5870f5db8019" xmlns="http://www.w3.org/2000/svg" xmlns:xlink="http://www.w3.org/1999/xlink" viewBox="640 179.7 461 435.3" style="enable-background:new 640 179.7 461 435.3"><style>.st0{opacity:.5}.st1{fill:url(#SVGID_1_)}.st2{fill:#7b5eea}.st3{fill:url(#SVGID_2_)}.st4{fill:url(#SVGID_3_)}.st5{fill:url(#SVGID_4_)}.st6{fill:url(#SVGID_5_)}.st7{fill:url(#SVGID_6_)}.st8{fill:url(#SVGID_7_)}.st9{opacity:.5;fill:#7b5eea;enable-background:new}.st10{opacity:.3;fill:#7b5eea;enable-background:new}.st11{fill:url(#SVGID_8_)}.st12{opacity:.2;fill:none;stroke:#535461;stroke-width:3;stroke-miterlimit:10;enable-background:new}</style><title>email capture</title><g class="st0"><linearGradient id="SVGID_1_" gradientUnits="userSpaceOnUse" x1="885.8345" y1="206.47" x2="885.8345" y2="321.86" gradientTransform="matrix(1 0 0 -1 -135 564.61)"><stop offset="0" style="stop-color:gray;stop-opacity:.25"/><stop offset=".54" style="stop-color:gray;stop-opacity:.12"/><stop offset="1" style="stop-color:gray;stop-opacity:.1"/></linearGradient><path class="st1" d="M771 329.1c25.3.0 37-13.6 37-31.8.0-31.8-25.6-54.6-57.4-54.6-31.9.4-57.4 26.6-56.9 58.5.4 31.3 25.7 56.5 56.9 56.9 11.7-.1 23.1-3.8 32.7-10.7 1-.7 1.6-1.7 1.8-2.9.2-1-.1-2-.9-2.7-1.5-1.3-3.8-1.1-5.1.4-.1.1-.1.1-.2.2-2.1 2.8-8.4 7.4-26.9 7.9-28.1.6-51.6-21.7-51.7-49.8-.1-27.9 22.8-49.8 50.3-50.1s49.7 19.1 49.7 46.3c0 17.3-12 25.3-26.5 25-4.6.3-5.5-1.5-4.9-8 .5-5.3 5.6-27.5 7.4-35.3.6-2.3-.9-4.6-3.2-5.2-.4-.1-.8-.1-1.2-.1h-.3c-2 .2-3.5 1.8-3.7 3.8-.2 1.2-.2 2.5-.3 3.8-2.8-5.5-9.3-9.9-17-10.2-16.3.3-30.5 15.1-31.2 36.7.0 14.5 7.7 22.8 21 22.8 9.3.0 16-5.5 19.8-10.8C760.2 319.3 759.9 328.5 771 329.1zM741.7 322.7c-8.3.0-13.3-6.2-13.3-16 0-17 11.4-27.8 22.2-27.8 9.6.0 13.3 6.5 13.6 15.1C764.2 307.9 755.2 322.7 741.7 322.7v0z"/></g><path class="st2" d="M770.1 327.9c24.2.0 35.4-13 35.4-30.4.0-30.4-24.5-52.2-54.8-52.2-30.5.0-55.1 24.7-55.1 55.1.0 30.5 24.7 55.1 55.1 55.1 11.2-.1 22.1-3.7 31.2-10.2.9-.6 1.5-1.6 1.7-2.7.2-.9-.1-1.9-.8-2.5-1.5-1.2-3.6-1-4.9.4.0.1-.1.1-.1.2-2 2.6-8 7.1-25.7 7.5-26.8.6-49.3-20.8-49.4-47.6-.1-26.6 21.8-47.6 48.1-47.9s47.5 18.3 47.5 44.2c0 16.5-11.5 24.2-25.4 23.9-4.4.3-5.3-1.5-4.7-7.7.5-5.1 5.3-26.3 7.1-33.7.5-2.2-.8-4.4-3-4.9-.4-.1-.7-.1-1.1-.1h-.3c-1.9.2-3.4 1.7-3.6 3.6-.2 1.2-.2 2.4-.3 3.6-2.7-5.3-8.8-9.4-16.2-9.7-15.6.3-29.2 14.5-29.8 35.1.0 13.9 7.4 21.8 20 21.8 8.8.0 15.3-5.3 18.9-10.3C759.8 318.4 759.5 327.3 770.1 327.9zM742.1 321.7c-8 0-12.7-5.9-12.7-15.3.0-16.2 10.9-26.5 21.2-26.5 9.1.0 12.7 6.2 13 14.5C763.6 307.5 755 321.7 742.1 321.7v0z"/><g class="st0"><linearGradient id="SVGID_2_" gradientUnits="userSpaceOnUse" x1="995.21" y1="317.12" x2="995.21" y2="384.88" gradientTransform="matrix(1 0 0 -1 -135 564.61)"><stop offset="0" style="stop-color:gray;stop-opacity:.25"/><stop offset=".54" style="stop-color:gray;stop-opacity:.12"/><stop offset="1" style="stop-color:gray;stop-opacity:.1"/></linearGradient><path class="st3" d="M872.3 230.5c14.9.0 21.7-8 21.7-18.7.0-18.7-15-32.1-33.7-32.1-18.7.0-33.9 15.2-33.9 33.9s15.2 33.9 33.9 33.9c6.9-.1 13.6-2.3 19.2-6.3.5-.4.9-1 1-1.7.1-.6-.1-1.2-.5-1.6-.9-.8-2.2-.7-3 .2.0.0-.1.1-.1.1-1.2 1.6-4.9 4.4-15.8 4.6-16.3.4-29.9-12.4-30.3-28.7.0-.2.0-.3.0-.5.0-16.4 13.4-29.3 29.5-29.4s29.2 11.2 29.2 27.2c0 10.1-7.1 14.9-15.6 14.7-2.7.2-3.3-.9-2.9-4.7.3-3.1 3.3-16.1 4.3-20.7.3-1.4-.5-2.7-1.9-3-.2-.1-.5-.1-.7-.1h-.2c-1.2.1-2.1 1-2.2 2.2-.1.7-.1 1.5-.2 2.2-2-3.6-5.8-5.9-10-6-9.6.2-17.9 8.9-18.3 21.6.0 8.5 4.5 13.4 12.3 13.4 4.7-.1 9-2.5 11.6-6.3C865.8 224.6 865.7 230.1 872.3 230.5zM855 226.7c-4.9.0-7.8-3.6-7.8-9.4.0-10 6.7-16.3 13-16.3 5.6.0 7.8 3.8 8 8.9C868.3 218 863 226.7 855 226.7z"/></g><path class="st2" d="M871.7 229.6c14.1.0 20.6-7.6 20.6-17.7.0-17.7-14.3-30.4-32-30.4-17.8.0-32.2 14.4-32.2 32.2s14.4 32.2 32.2 32.2c6.5-.1 12.9-2.2 18.2-6 .5-.4.9-.9 1-1.6.1-.5-.1-1.1-.5-1.5-.8-.7-2.1-.6-2.8.2.0.0-.1.1-.1.2-1.2 1.5-4.7 4.1-15 4.4-15.5.4-28.3-11.7-28.8-27.2.0-.2.0-.4.0-.6.0-15.5 12.7-27.8 28-28s27.7 10.7 27.7 25.9c0 9.6-6.7 14.1-14.8 13.9-2.6.2-3.1-.9-2.8-4.5.3-3 3.1-15.3 4.1-19.6.3-1.3-.4-2.6-1.7-2.9-.2-.1-.5-.1-.7-.1H872c-1.1.1-2 1-2.1 2.1-.1.7-.1 1.4-.2 2.1-1.9-3.5-5.5-5.6-9.5-5.7-9.1.2-17 8.4-17.4 20.5.0 8.1 4.3 12.7 11.7 12.7 4.4-.1 8.5-2.3 11-6C865.6 224.1 865.5 229.3 871.7 229.6zM855.3 226c-4.6.0-7.4-3.4-7.4-8.9.0-9.5 6.4-15.5 12.4-15.5 5.3.0 7.4 3.6 7.6 8.4C867.9 217.7 862.9 226 855.3 226v0z"/><g class="st0"><linearGradient id="SVGID_3_" gradientUnits="userSpaceOnUse" x1="1101.5303" y1="244.86" x2="1101.5303" y2="314.57" gradientTransform="matrix(1 0 0 -1 -135 564.61)"><stop offset="0" style="stop-color:gray;stop-opacity:.25"/><stop offset=".54" style="stop-color:gray;stop-opacity:.12"/><stop offset="1" style="stop-color:gray;stop-opacity:.1"/></linearGradient><path class="st4" d="M978.6 302.2c15.3.0 22.4-8.2 22.4-19.2.0-19.2-15.5-33-34.7-33-19.2.3-34.6 16.2-34.3 35.4.3 18.8 15.5 33.9 34.3 34.3 7.1-.1 14-2.3 19.7-6.5.6-.4 1-1 1.1-1.7.1-.6-.1-1.2-.5-1.6-.9-.8-2.3-.7-3.1.3.0.0-.1.1-.1.1-1.3 1.7-5.1 4.5-16.3 4.7-16.8.5-30.7-12.8-31.2-29.6.0-.2.0-.3.0-.5-.1-16.8 13.8-30.1 30.4-30.3s30 11.6 30 28c0 10.4-7.3 15.3-16 15.1-2.8.2-3.4-.9-3-4.9.3-3.2 3.4-16.6 4.5-21.3.3-1.4-.5-2.8-1.9-3.1-.2-.1-.5-.1-.7-.1H979c-1.2.1-2.1 1.1-2.3 2.3-.1.8-.2 1.5-.2 2.3-2.1-3.7-6-6.1-10.3-6.1-9.9.2-18.5 9.1-18.8 22.2.0 8.8 4.7 13.8 12.7 13.8 4.8-.1 9.2-2.5 11.9-6.5C972.1 296.3 971.9 301.9 978.6 302.2zM960.9 298.3c-5 0-8-3.7-8-9.7.0-10.3 6.9-16.8 13.4-16.8 5.8.0 8 3.9 8.2 9.1C974.5 289.4 969.1 298.3 960.9 298.3v0z"
		/></g><path class="st2" d="M977.7 300.9c14.1.0 20.6-7.6 20.6-17.7.0-17.7-14.3-30.4-32-30.4-17.8.0-32.2 14.4-32.2 32.2.0 17.8 14.4 32.2 32.2 32.2 6.5-.1 12.9-2.2 18.2-6 .5-.4.9-.9 1-1.6.1-.5-.1-1.1-.5-1.5-.8-.7-2.1-.6-2.8.2.0.0-.1.1-.1.2-1.2 1.5-4.7 4.1-15 4.4-15.5.4-28.3-11.7-28.8-27.2.0-.2.0-.4.0-.6.0-15.5 12.7-27.8 28-28s27.7 10.8 27.7 25.9c0 9.6-6.7 14.1-14.8 13.9-2.6.2-3.1-.9-2.8-4.5.3-3 3.1-15.3 4.1-19.6.3-1.3-.4-2.6-1.7-2.9-.2-.1-.5-.1-.7-.1H978c-1.1.1-2 1-2.1 2.1-.1.7-.1 1.4-.2 2.1-1.9-3.5-5.5-5.6-9.5-5.7-9.1.2-17 8.4-17.4 20.5.0 8.1 4.3 12.7 11.7 12.7 4.4-.1 8.5-2.3 11-6C971.6 295.4 971.5 300.6 977.7 300.9zM961.3 297.3c-4.6.0-7.4-3.4-7.4-8.9.0-9.5 6.4-15.5 12.4-15.5 5.3.0 7.4 3.6 7.6 8.4C973.9 289 968.9 297.3 961.3 297.3v0z"/><g class="st0"><linearGradient id="SVGID_4_" gradientUnits="userSpaceOnUse" x1="1006.1886" y1="142.26" x2="1006.1886" y2="208.72" gradientTransform="matrix(1 0 0 -1 -135 564.61)"><stop offset="0" style="stop-color:gray;stop-opacity:.25"/><stop offset=".54" style="stop-color:gray;stop-opacity:.12"/><stop offset="1" style="stop-color:gray;stop-opacity:.1"/></linearGradient><path class="st5" d="M883 405.6c14.6.0 21.3-7.8 21.3-18.3.0-18.3-14.8-31.5-33-31.5-18.4.0-33.2 14.9-33.2 33.2.0 18.3 14.9 33.2 33.2 33.2 6.8-.1 13.3-2.2 18.8-6.2.5-.4.9-1 1-1.6.1-.6-.1-1.1-.5-1.5-.9-.7-2.2-.6-2.9.3.0.0.0.0-.1.1-1.2 1.6-4.8 4.3-15.5 4.5-16 .4-29.3-12.2-29.7-28.2.0-.1.0-.3.0-.4.0-16 13.1-28.7 29-28.9s28.6 11 28.6 26.7c0 10-6.9 14.6-15.3 14.4-2.7.2-3.2-.9-2.8-4.6.2-3.1 3.2-15.9 4.2-20.3.3-1.3-.5-2.7-1.8-3-.2-.1-.4-.1-.7-.1h-.2c-1.1.1-2 1-2.2 2.2-.1.7-.1 1.4-.2 2.2-2-3.6-5.7-5.8-9.8-5.9-9.4.2-17.6 8.7-18 21.1.0 8.4 4.4 13.1 12.1 13.1 4.6-.1 8.8-2.4 11.4-6.2C876.8 4e2 876.6 405.3 883 405.6zM866.1 401.9c-4.8.0-7.6-3.5-7.6-9.2.0-9.8 6.6-16 12.8-16 5.5.0 7.6 3.7 7.8 8.7C879.1 393.4 873.9 401.9 866.1 401.9z"/></g><path class="st2" d="M882.6 405.1c14.1.0 20.6-7.6 20.6-17.7.0-17.7-14.3-30.4-32-30.4-17.8.0-32.2 14.4-32.2 32.2s14.4 32.2 32.2 32.2c6.5-.1 12.9-2.2 18.2-6 .5-.4.9-.9 1-1.6.1-.5-.1-1.1-.5-1.5-.8-.7-2.1-.6-2.8.2.0.0-.1.1-.1.2-1.2 1.5-4.7 4.1-15 4.4-15.5.4-28.3-11.7-28.8-27.2.0-.2.0-.4.0-.6.0-15.5 12.7-27.8 28-28s27.7 10.7 27.7 25.9c0 9.6-6.7 14.1-14.8 13.9-2.6.2-3.1-.9-2.8-4.5.3-3 3.1-15.3 4.1-19.6.3-1.3-.4-2.6-1.7-2.9-.2-.1-.5-.1-.7-.1H883c-1.1.1-2 1-2.1 2.1-.1.7-.1 1.4-.2 2.1-1.9-3.5-5.5-5.6-9.5-5.7-9.1.2-17 8.4-17.4 20.5.0 8.1 4.3 12.7 11.7 12.7 4.4-.1 8.5-2.3 11-6C876.6 399.6 876.4 404.8 882.6 405.1zM866.3 401.5c-4.6.0-7.4-3.4-7.4-8.9.0-9.5 6.4-15.5 12.4-15.5 5.3.0 7.4 3.6 7.6 8.4C878.8 393.2 873.8 401.5 866.3 401.5v0z"/><g class="st0"><linearGradient id="SVGID_5_" gradientUnits="userSpaceOnUse" x1="917.51" y1="114.36" x2="917.51" y2="183.52" gradientTransform="matrix(1 0 0 -1 -135 564.61)"><stop offset="0" style="stop-color:gray;stop-opacity:.25"/><stop offset=".54" style="stop-color:gray;stop-opacity:.12"/><stop offset="1" style="stop-color:gray;stop-opacity:.1"/></linearGradient><path class="st6" d="M794.8 432.8c15.2.0 22.2-8.1 22.2-19 0-19-15.3-32.7-34.4-32.7-19.1.0-34.6 15.5-34.6 34.6.0 19.1 15.5 34.6 34.6 34.6 7-.1 13.9-2.3 19.6-6.4.6-.4 1-1 1.1-1.7.1-.6-.1-1.2-.5-1.6-.9-.8-2.3-.7-3.1.2.0.0-.1.1-.1.1-1.3 1.6-5 4.5-16.1 4.7-16.6.5-30.5-12.6-31-29.3.0-.2.0-.4.0-.6.0-16.7 13.7-29.9 30.1-30.1s29.8 11.5 29.8 27.7c0 10.4-7.2 15.2-15.9 15-2.8.2-3.3-.9-3-4.8.3-3.2 3.3-16.5 4.4-21.1.3-1.4-.5-2.8-1.9-3.1-.2-.1-.5-.1-.7-.1h-.2c-1.2.1-2.1 1.1-2.2 2.3-.1.7-.2 1.5-.2 2.3-2.1-3.7-5.9-6-10.2-6.1-9.8.2-18.3 9.1-18.7 22 0 8.7 4.6 13.7 12.6 13.7 4.8-.1 9.3-2.5 12-6.5C788.3 426.9 788.2 432.5 794.8 432.8zM777.2 428.9c-5 0-8-3.7-8-9.6.0-10.2 6.8-16.6 13.3-16.6 5.7.0 8 3.9 8.1 9.1C790.7 420.1 785.4 428.9 777.2 428.9v0z"/></g><path class="st2" d="M794 431.6c14.1.0 20.6-7.6 20.6-17.7.0-17.7-14.3-30.4-32-30.4-17.8.0-32.2 14.4-32.2 32.2s14.4 32.2 32.2 32.2c6.5-.1 12.9-2.2 18.2-6 .5-.4.9-.9 1-1.6.1-.5-.1-1.1-.5-1.5-.8-.7-2.1-.6-2.8.2.0.0-.1.1-.1.2-1.2 1.5-4.7 4.1-15 4.4-15.5.4-28.3-11.7-28.8-27.2.0-.2.0-.4.0-.6.0-15.5 12.7-27.8 28-28s27.7 10.7 27.7 25.8c0 9.6-6.7 14.1-14.8 13.9-2.6.2-3.1-.9-2.8-4.5.3-3 3.1-15.3 4.1-19.6.3-1.3-.4-2.6-1.7-2.9-.2-.1-.5-.1-.7-.1h-.2c-1.1.1-2 1-2.1 2.1-.1.7-.1 1.4-.2 2.1-1.9-3.5-5.5-5.6-9.5-5.7-9.1.2-17 8.4-17.4 20.5.0 8.1 4.3 12.7 11.7 12.7 4.4-.1 8.5-2.3 11-6C788 426 787.8 431.3 794 431.6zM777.7 428c-4.6.0-7.4-3.4-7.4-8.9.0-9.5 6.4-15.5 12.4-15.5 5.3.0 7.4 3.6 7.6 8.4C790.2 419.8 785.2 428 777.7 428v0z"/><g class="st0"><linearGradient id="SVGID_6_" gradientUnits="userSpaceOnUse" x1="917.51" y1="7.42" x2="917.51" y2="76.58" gradientTransform="matrix(1 0 0 -1 -135 564.61)"><stop offset="0" style="stop-color:gray;stop-opacity:.25"/><stop offset=".54" style="stop-color:gray;stop-opacity:.12"/><stop offset="1" style="stop-color:gray;stop-opacity:.1"/></linearGradient><path class="st7" d="M794.8 539.8c15.2.0 22.2-8.1 22.2-19 0-19-15.3-32.7-34.4-32.7-19.1.0-34.6 15.5-34.6 34.6s15.5 34.6 34.6 34.6c7-.1 13.9-2.3 19.6-6.4.6-.4 1-1 1.1-1.7.1-.6-.1-1.2-.5-1.6-.9-.8-2.3-.7-3.1.2.0.0-.1.1-.1.1-1.3 1.7-5 4.5-16.1 4.7-16.6.5-30.5-12.6-31-29.3.0-.2.0-.4.0-.6.0-16.7 13.7-29.9 30.1-30.1s29.8 11.5 29.8 27.7c0 10.4-7.2 15.2-15.9 15-2.8.2-3.3-.9-3-4.8.3-3.2 3.3-16.5 4.4-21.1.3-1.4-.5-2.8-1.9-3.1-.2-.1-.5-.1-.7-.1h-.2c-1.2.1-2.1 1.1-2.2 2.3-.1.7-.2 1.5-.2 2.3-2.1-3.7-5.9-6-10.2-6.1-9.8.2-18.3 9.1-18.7 22 0 8.7 4.6 13.7 12.6 13.7 4.8-.1 9.3-2.5 12-6.5C788.3 533.9 788.2 539.4 794.8 539.8zM777.2 535.9c-5 0-8-3.7-8-9.6.0-10.2 6.8-16.6 13.3-16.6 5.7.0 8 3.9 8.1 9.1C790.7 527 785.4 535.9 777.2 535.9z"/></g><path class="st2" d="M794 538.6c14.1.0 20.6-7.6 20.6-17.7.0-17.7-14.3-30.4-32-30.4-17.8.0-32.2 14.4-32.2 32.2.0 17.8 14.4 32.2 32.2 32.2 6.5-.1 12.9-2.2 18.2-6 .5-.4.9-.9 1-1.6.1-.5-.1-1.1-.5-1.5-.8-.7-2.1-.6-2.8.2.0.0-.1.1-.1.2-1.2 1.5-4.7 4.1-15 4.4-15.5.4-28.3-11.7-28.8-27.2.0-.2.0-.4.0-.6.0-15.5 12.7-27.8 28-28s27.7 10.7 27.7 25.8c0 9.6-6.7 14.1-14.8 13.9-2.6.2-3.1-.9-2.8-4.5.3-3 3.1-15.3 4.1-19.7.3-1.3-.4-2.6-1.7-2.9-.2-.1-.5-.1-.7-.1h-.2c-1.1.1-2 1-2.1 2.1-.1.7-.1 1.4-.2 2.1-1.9-3.4-5.6-5.5-9.5-5.5-9.1.2-17 8.4-17.4 20.5.0 8.1 4.3 12.7 11.7 12.7 4.4-.1 8.5-2.3 11-6C787.9 533.1 787.8 538.2 794 538.6zM777.7 535c-4.6.0-7.4-3.4-7.4-8.9.0-9.5 6.4-15.5 12.4-15.5 5.3.0 7.4 3.6 7.6 8.4C790.2 526.7 785.2 535 777.7 535v0z"/><g class="st0"><linearGradient id="SVGID_7_" gradientUnits="userSpaceOnUse" x1="1069.245" y1="-50.38" x2="1069.245" y2="19.32" gradientTransform="matrix(1 0 0 -1 -135 564.61)"><stop offset="0" style="stop-color:gray;stop-opacity:.25"/><stop offset=".54" style="stop-color:gray;stop-opacity:.12"/><stop offset="1" style="stop-color:gray;stop-opacity:.1"/></linearGradient><path class="st8" d="M946.6 597.5c15.3.0 22.4-8.2 22.4-19.2.0-19.2-15.5-33-34.7-33-19.2.0-34.9 15.6-34.9 34.9.0 19.2 15.6 34.8 34.9 34.8v0c7.1-.1 14-2.3 19.7-6.5.6-.4 1-1 1.1-1.7.1-.6-.1-1.2-.5-1.6-.9-.8-2.3-.7-3.1.3.0.0-.1.1-.1.1-1.3 1.7-5.1 4.5-16.3 4.7-16.8.4-30.7-12.8-31.2-29.6.0-.2.0-.3.0-.5-.1-16.8 13.8-30.1 30.4-30.3s30 11.5 30 28c0 10.4-7.3 15.3-16 15.1-2.8.2-3.3-.9-3-4.8.3-3.2 3.4-16.6 4.5-21.3.3-1.4-.5-2.8-1.9-3.1-.2-.1-.5-.1-.7-.1H947c-1.2.1-2.1 1.1-2.3 2.3-.1.8-.2 1.5-.2 2.3-2.1-3.7-6-6.1-10.3-6.2-9.9.2-18.5 9.1-18.8 22.2.0 8.8 4.7 13.8 12.7 13.8 4.8-.1 9.2-2.5 11.9-6.5C940.2 591.6 939.9 597.1 946.6 597.5zM928.9 593.6c-5 0-8-3.7-8-9.7.0-10.3 6.9-16.8 13.4-16.8 5.8.0 8 3.9 8.2 9.1C942.5 584.6 937.1 593.6 928.9 593.6v0z"
		/></g><path class="st2" d="M945.7 596.1c14.1.0 20.6-7.6 20.6-17.7.0-17.7-14.3-30.4-32-30.4-17.8.0-32.2 14.4-32.2 32.2.0 17.8 14.4 32.2 32.2 32.2 6.5-.1 12.9-2.2 18.2-6 .5-.4.9-.9 1-1.6.1-.5-.1-1.1-.5-1.5-.8-.7-2.1-.6-2.8.2.0.0-.1.1-.1.2-1.2 1.5-4.7 4.1-15 4.4-15.5.4-28.3-11.7-28.8-27.2.0-.2.0-.4.0-.6.0-15.5 12.7-27.8 28-28S962 563 962 578.1c0 9.6-6.7 14.1-14.8 13.9-2.6.2-3.1-.9-2.8-4.5.3-3 3.1-15.3 4.1-19.7.3-1.3-.4-2.6-1.7-2.9-.2-.1-.5-.1-.7-.1H946c-1.1.1-2 1-2.1 2.1-.1.7-.1 1.4-.2 2.1-1.9-3.5-5.5-5.6-9.5-5.7-9.1.2-17 8.4-17.4 20.5.0 8.1 4.3 12.7 11.7 12.7 4.4-.1 8.5-2.3 11-6C939.6 590.6 939.5 595.8 945.7 596.1zM929.3 592.5c-4.6.0-7.4-3.4-7.4-8.9.0-9.5 6.4-15.5 12.4-15.5 5.3.0 7.4 3.6 7.6 8.4C941.9 584.3 936.9 592.5 929.3 592.5z"/><path class="st9" d="M887.6 495.6c10.1.0 14.7-5.4 14.7-12.7.0-12.7-10.2-21.8-22.8-21.8-12.7.6-22.5 11.4-21.9 24 .6 11.9 10 21.3 21.9 21.9 4.7.0 9.2-1.5 13-4.3.4-.3.6-.7.7-1.1.1-.4-.1-.8-.3-1.1-.6-.5-1.5-.4-2 .2.0.0.0.1-.1.1-.8 1.1-3.3 3-10.7 3.1-11 .1-20-8.6-20.2-19.6s8.6-20 19.6-20.2c10.9-.1 19.8 7.6 19.8 18.4.0 6.9-4.8 10.1-10.6 10-1.8.1-2.2-.6-2-3.2.2-2.1 2.2-11 2.9-14 .2-.9-.3-1.8-1.3-2.1-.2.0-.3-.1-.5.0h-.1c-.8.1-1.4.7-1.5 1.5-.1.5-.1 1-.1 1.5-1.4-2.5-3.9-4-6.8-4-6.5.1-12.2 6-12.4 14.6.0 5.8 3.1 9.1 8.3 9.1 3.2-.1 6.1-1.7 7.9-4.3C883.3 491.8 883.2 495.3 887.6 495.6zM875.9 493c-3.3.0-5.3-2.5-5.3-6.4.0-6.8 4.5-11.1 8.8-11.1 3.8.0 5.3 2.6 5.4 6C884.9 487.1 881.3 493 875.9 493v0z"/><path class="st9" d="M693.8 534c10.1.0 14.7-5.4 14.7-12.7.0-12.7-10.2-21.8-22.8-21.8-12.7.6-22.5 11.4-21.9 24 .6 11.9 10 21.3 21.9 21.9 4.7.0 9.2-1.5 13-4.3.4-.3.6-.7.7-1.1.1-.4-.1-.8-.3-1.1-.6-.5-1.5-.4-2 .2.0.0.0.1-.1.1-.8 1.1-3.3 3-10.7 3.1-11 .1-20-8.6-20.2-19.6s8.6-20 19.6-20.2c10.9-.1 19.8 7.6 19.8 18.4.0 6.9-4.8 10.1-10.6 10-1.8.1-2.2-.6-2-3.2.2-2.1 2.2-11 2.9-14 .2-.9-.3-1.8-1.3-2.1-.2.0-.3-.1-.5.0h0c-.8.1-1.4.7-1.5 1.5-.1.5-.1 1-.1 1.5-1.4-2.5-3.9-4-6.8-4-6.5.1-12.2 6-12.4 14.6.0 5.8 3.1 9.1 8.3 9.1 3.2-.1 6.1-1.7 7.9-4.3C689.5 530.1 689.4 533.7 693.8 534zM682.2 531.4c-3.3.0-5.3-2.5-5.3-6.4.0-6.8 4.5-11.1 8.8-11.1 3.8.0 5.3 2.6 5.4 6C691.1 525.5 687.6 531.4 682.2 531.4v0z"/><path class="st9" d="M670.1 363.1c10.1.0 14.7-5.4 14.7-12.6.0-12.6-10.2-21.8-22.8-21.8-12.7.6-22.5 11.4-21.9 24 .6 11.9 10 21.3 21.9 21.9 4.7.0 9.2-1.5 13-4.3.4-.3.6-.7.7-1.1.1-.4-.1-.8-.3-1.1-.6-.5-1.5-.4-2 .2.0.0.0.1-.1.1-.8 1.1-3.3 3-10.7 3.1-11 .1-20-8.6-20.2-19.6-.1-11 8.6-20 19.6-20.2 10.9-.1 19.8 7.6 19.8 18.4.0 6.9-4.8 10.1-10.6 10-1.8.1-2.2-.6-2-3.2.2-2.1 2.2-11 2.9-14 .2-.9-.3-1.8-1.3-2.1-.2.0-.3-.1-.5.0h-.1c-.8.1-1.4.7-1.5 1.5-.1.5-.1 1-.1 1.5-1.4-2.5-3.9-4-6.8-4-6.5.1-12.2 6-12.4 14.6.0 5.8 3.1 9.1 8.3 9.1 3.2-.1 6.1-1.7 7.9-4.3C665.7 359.2 665.6 362.8 670.1 363.1zM658.4 360.5c-3.3.0-5.3-2.5-5.3-6.4.0-6.8 4.5-11.1 8.8-11.1 3.8.0 5.3 2.6 5.4 6C667.4 354.6 663.8 360.5 658.4 360.5z"/><path class="st9" d="M1054 368.5c10.1.0 14.7-5.4 14.7-12.6.0-12.6-10.2-21.8-22.8-21.8-12.7.6-22.5 11.4-21.9 24 .6 11.9 10 21.3 21.9 21.9 4.7.0 9.2-1.5 13-4.3.4-.3.6-.7.7-1.1.1-.4-.1-.8-.3-1.1-.6-.5-1.5-.4-2 .2.0.0.0.1-.1.1-.8 1.1-3.3 3-10.7 3.1-11 .1-20-8.6-20.2-19.6-.1-11 8.6-20 19.6-20.2 10.9-.1 19.8 7.6 19.8 18.4.0 6.9-4.8 10.1-10.6 10-1.8.1-2.2-.6-2-3.2.2-2.1 2.2-11 2.9-14 .2-.9-.3-1.8-1.3-2.1-.2.0-.3-.1-.5.0h-.1c-.8.1-1.4.7-1.5 1.5-.1.5-.1 1-.1 1.5-1.4-2.5-3.9-4-6.8-4-6.5.1-12.2 6-12.4 14.6.0 5.8 3.1 9.1 8.3 9.1 3.2-.1 6.1-1.7 7.9-4.3C1049.7 364.7 1049.5 368.3 1054 368.5zM1042.3 366c-3.3.0-5.3-2.5-5.3-6.4.0-6.8 4.5-11.1 8.8-11.1 3.8.0 5.3 2.6 5.4 6C1051.3 360.1 1047.7 366 1042.3 366v0z"/><path class="st10" d="M689.3 413.8c5.6.0 8.3-3 8.3-7.1.0-7.1-5.7-12.2-12.8-12.2-7.1.2-12.7 6.1-12.5 13.2.2 6.8 5.7 12.3 12.5 12.5 2.6.0 5.2-.9 7.3-2.4.2-.2.4-.4.4-.6.0-.2.0-.4-.2-.6-.3-.3-.9-.2-1.1.1.0.0.0.0.0.0-.5.6-1.9 1.7-6 1.8-6.2.2-11.3-4.5-11.6-10.7-.2-6.2 4.5-11.3 10.7-11.6.2.0.4.0.6.0 6.1-.1 11.1 4.3 11.1 10.3.0 3.9-2.7 5.6-5.9 5.6-1 .1-1.2-.3-1.1-1.8.1-1.2 1.3-6.1 1.7-7.9.1-.5-.3-1.1-.8-1.2-.1.0-.1.0-.2.0h-.1c-.4.1-.8.4-.8.8.0.3-.1.6-.1.8-.8-1.4-2.2-2.2-3.8-2.3-3.7.1-6.8 3.4-7 8.2.0 3.2 1.7 5.1 4.7 5.1 1.8.0 3.4-.9 4.4-2.4.0 1.2 1 2.2 2.2 2.2C689.2 413.8 689.3 413.8 689.3 413.8zM682.8 412.4c-1.9.0-3-1.4-3-3.6.0-3.8 2.5-6.2 5-6.2 2.1.0 3 1.4 3 3.4C687.8 409 685.8 412.4 682.8 412.4v0z"/><path class="st10" d="M755.2 467.7c5.6.0 8.3-3 8.3-7.1.0-7.1-5.7-12.2-12.8-12.2-7.1.2-12.7 6.1-12.5 13.2.2 6.8 5.7 12.3 12.5 12.5 2.6.0 5.2-.9 7.3-2.4.2-.2.4-.4.4-.6.0-.2.0-.4-.2-.6-.3-.3-.9-.2-1.1.1.0.0.0.0.0.0-.5.6-1.9 1.7-6 1.8-6.2.2-11.3-4.5-11.6-10.7-.2-6.2 4.5-11.3 10.7-11.6.2.0.4.0.6.0 6.1-.1 11.1 4.3 11.1 10.3.0 3.8-2.7 5.6-5.9 5.6-1 .1-1.2-.3-1.1-1.8.1-1.2 1.3-6.1 1.7-7.9.1-.5-.3-1.1-.8-1.2-.1.0-.1.0-.2.0h-.1c-.4.1-.8.4-.8.8.0.3-.1.6-.1.8-.8-1.4-2.2-2.2-3.8-2.3-3.7.1-6.8 3.4-7 8.2.0 3.2 1.7 5.1 4.7 5.1 1.8.0 3.4-.9 4.4-2.4.0 1.2 1 2.2 2.2 2.2C755 467.7 755.1 467.7 755.2 467.7zM748.6 466.3c-1.9.0-3-1.4-3-3.6.0-3.8 2.5-6.2 5-6.2 2.1.0 3 1.4 3 3.4C753.6 463 751.7 466.3 748.6 466.3v0z"/><path class="st10" d="M951.7 401.9c5.6.0 8.3-3 8.3-7.1.0-7.1-5.7-12.2-12.8-12.2-7.1.2-12.7 6.1-12.5 13.2.2 6.8 5.7 12.3 12.5 12.5 2.6.0 5.2-.9 7.3-2.4.2-.2.4-.4.4-.6.0-.2.0-.4-.2-.6-.3-.3-.9-.2-1.1.1.0.0.0.0.0.0-.5.6-1.9 1.7-6 1.8-6.2.2-11.3-4.5-11.6-10.7-.2-6.2 4.5-11.3 10.7-11.6.2.0.4.0.6.0 6.1-.1 11.1 4.3 11.1 10.3.0 3.9-2.7 5.6-5.9 5.6-1 .1-1.2-.3-1.1-1.8.1-1.2 1.3-6.1 1.7-7.9.1-.5-.3-1.1-.8-1.2-.1.0-.1.0-.2.0h-.1c-.4.1-.8.4-.8.8.0.3-.1.6-.1.8-.8-1.4-2.2-2.2-3.8-2.3-3.7.1-6.8 3.4-7 8.2.0 3.2 1.7 5.1 4.7 5.1 1.8.0 3.4-.9 4.4-2.4.0 1.2 1 2.2 2.2 2.2C951.5 401.9 951.6 401.9 951.7 401.9zM945.1 400.4c-1.9.0-3-1.4-3-3.6.0-3.8 2.5-6.2 5-6.2 2.1.0 3 1.4 3 3.4C950.2 397.2 948.2 400.5 945.1 400.4v0z"/><path class="st10" d="M819.1 345.2c5.6.0 8.3-3 8.3-7.1.0-7.1-5.7-12.2-12.8-12.2-7.1.2-12.7 6.1-12.5 13.2.2 6.8 5.7 12.3 12.5 12.5 2.6.0 5.2-.9 7.3-2.4.2-.2.4-.4.4-.6.0-.2.0-.4-.2-.6-.3-.3-.9-.2-1.1.1.0.0.0.0.0.0-.5.6-1.9 1.7-6 1.8-6.2.2-11.3-4.5-11.6-10.7-.2-6.2 4.5-11.3 10.7-11.6.2.0.4.0.6.0 6.1-.1 11.1 4.3 11.1 10.3.0 3.9-2.7 5.6-5.9 5.6-1 .1-1.2-.3-1.1-1.8.1-1.2 1.3-6.1 1.7-7.9.1-.5-.3-1.1-.8-1.2-.1.0-.1.0-.2.0h-.1c-.4.1-.8.4-.8.8.0.3-.1.6-.1.8-.8-1.4-2.2-2.2-3.8-2.3-3.7.1-6.8 3.4-7 8.2.0 3.2 1.7 5.1 4.7 5.1 1.8.0 3.4-.9 4.4-2.4.0 1.2 1 2.2 2.2 2.2C819 345.2 819.1 345.2 819.1 345.2zM812.6 343.8c-1.9.0-3-1.4-3-3.6.0-3.8 2.5-6.2 5-6.2 2.1.0 3 1.4 3 3.4C817.6 340.5 815.6 343.8 812.6 343.8v0z"/><path class="st9" d="M887.6 301.8c10.1.0 14.7-5.4 14.7-12.6.0-12.6-10.2-21.8-22.8-21.8-12.7.6-22.5 11.4-21.9 24 .6 11.9 10 21.3 21.9 21.9 4.7.0 9.2-1.5 13-4.3.4-.3.6-.7.7-1.1.1-.4-.1-.8-.3-1.1-.6-.5-1.5-.4-2 .2.0.0.0.1-.1.1-.8 1.1-3.3 3-10.7 3.1-11 .1-20-8.6-20.2-19.6-.1-11 8.6-20 19.6-20.2 10.9-.1 19.8 7.6 19.8 18.4.0 6.9-4.8 10.1-10.6 10-1.8.1-2.2-.6-2-3.2.2-2.1 2.2-11 2.9-14 .2-.9-.3-1.8-1.3-2.1-.2.0-.3-.1-.5.0h-.1c-.8.1-1.4.7-1.5 1.5-.1.5-.1 1-.1 1.5-1.4-2.5-3.9-4-6.8-4-6.5.1-12.2 6-12.4 14.6.0 5.8 3.1 9.1 8.3 9.1 3.2-.1 6.1-1.7 7.9-4.3C883.3 298 883.2 301.6 887.6 301.8zM875.9 299.2c-3.3.0-5.3-2.5-5.3-6.4.0-6.8 4.5-11.1 8.8-11.1 3.8.0 5.3 2.6 5.4 6C884.9 293.3 881.3 299.2 875.9 299.2v0z"/><g class="st0"><linearGradient id="SVGID_8_" gradientUnits="userSpaceOnUse" x1="1165.3101" y1="20.33" x2="1165.3101" y2="162.47" gradientTransform="matrix(1 0 0 -1 -135 564.61)"><stop offset="0" style="stop-color:gray;stop-opacity:.25"/><stop offset=".54" style="stop-color:gray;stop-opacity:.12"/><stop offset="1" style="stop-color:gray;stop-opacity:.1"/></linearGradient><path class="st11" d="M1055.4 508.5c31.2.0 45.6-16.7 45.6-39.1.0-39.1-31.5-67.3-70.7-67.3-39.2.0-70.7 31.9-70.7 71.1s31.5 71.1 70.7 71.1c14.4-.1 28.5-4.7 40.2-13.2 1.2-.8 2-2.1 2.2-3.5.2-1.2-.2-2.4-1.1-3.3-1.9-1.6-4.7-1.4-6.3.5-.1.1-.1.2-.2.3-2.6 3.4-10.3 9.2-33.2 9.7-34.6.8-63.5-26.8-63.6-61.3-.1-34.3 28.1-61.4 62-61.8s61.2 23.6 61.2 57c0 21.3-14.8 31.2-32.7 30.8-5.7.4-6.8-1.9-6.1-9.9.6-6.5 6.9-33.9 9.1-43.4.7-2.8-1.1-5.7-3.9-6.4-.5-.1-.9-.2-1.4-.1h-.4c-2.4.3-4.3 2.2-4.6 4.6-.2 1.5-.3 3.1-.3 4.6-3.4-6.8-11.4-12.2-20.9-12.5-20.1.4-37.6 18.6-38.4 45.2.0 17.9 9.5 28.1 25.8 28.1 11.4.0 19.8-6.8 24.3-13.3C1042.1 496.4 1041.7 507.8 1055.4 508.5zM1019.3 500.5c-10.3.0-16.3-7.6-16.3-19.8.0-20.9 14.1-34.2 27.4-34.2 11.8.0 16.3 8 16.7 18.6C1047 482.3 1036 500.6 1019.3 500.5v0z"/></g><path class="st2" d="M1054.5 507.3c30.1.0 44-16.1 44-37.8.0-37.8-30.4-64.9-68.2-64.9-37.8.0-68.2 30.8-68.2 68.5s30.4 68.5 68.2 68.5c13.9-.1 27.5-4.6 38.8-12.7 1.1-.8 1.9-2 2.1-3.4.2-1.2-.2-2.4-1.1-3.2-1.8-1.5-4.5-1.3-6.1.5-.1.1-.1.2-.2.3-2.5 3.3-9.9 8.8-32 9.3-33.4.8-61.3-25.8-61.4-59.2-.1-33.1 27.1-59.2 59.8-59.6 32.7-.4 59 22.7 59 55 0 20.5-14.3 30.1-31.5 29.7-5.5.4-6.6-1.8-5.9-9.5.6-6.3 6.6-32.7 8.8-41.9.7-2.7-1-5.5-3.8-6.2-.4-.1-.9-.2-1.4-.1h-.4c-2.3.3-4.2 2.1-4.4 4.5-.2 1.5-.3 3-.3 4.5-3.3-6.6-11-11.7-20.2-12.1-19.4.4-36.3 18-37 43.6.0 17.2 9.2 27.1 24.9 27.1 11 0 19.1-6.6 23.5-12.8C1041.7 495.6 1041.3 506.6 1054.5 507.3zM1019.7 499.6c-9.9.0-15.8-7.3-15.8-19.1.0-20.2 13.6-33 26.4-33 11.4.0 15.8 7.7 16.1 18C1046.4 482 1035.8 499.6 1019.7 499.6z"
	/><path class="st12" d="M527.4 302.9c.9-4.2 6.5-5.8 10.6-4.5s7.3 4.5 11 6.8 8.7 3.6 12.1 1c3.3-2.4 3.8-7.3 6.5-10.5s7.5-4.3 11.8-3.6 8.1 2.9 11.8 5l22.9 12.9"/><path class="st12" d="M519.4 327.9c.9-4.2 6.5-5.8 10.6-4.5s7.3 4.5 11 6.8c3.7 2.3 8.7 3.6 12.1 1 3.3-2.4 3.8-7.3 6.5-10.5s7.5-4.3 11.8-3.6 8.1 2.9 11.8 5l22.9 12.9"/><path class="st12" d="M527.4 537.9c.9 4.2 6.5 5.8 10.6 4.5s7.3-4.5 11-6.8 8.7-3.6 12.1-1c3.3 2.4 3.8 7.3 6.5 10.5s7.5 4.3 11.8 3.6 8.1-2.9 11.8-5l22.9-12.9"/><path class="st12" d="M519.4 512.9c.9 4.2 6.5 5.8 10.6 4.5s7.3-4.5 11-6.8c3.7-2.3 8.7-3.6 12.1-1 3.3 2.4 3.8 7.3 6.5 10.5s7.5 4.3 11.8 3.6 8.1-2.9 11.8-5l22.9-12.9"/></svg>