<svg xmlns="http://www.w3.org/2000/svg" xmlns:xlink="http://www.w3.org/1999/xlink" width="695.702" height="729.054" viewBox="0 0 695.702 729.054"><defs><linearGradient id="linear-gradient" x1=".565" y1=".851" x2="1.059" y2="-.07" gradientUnits="objectBoundingBox"><stop offset="0" stop-color="gray" stop-opacity=".251"/><stop offset=".54" stop-color="gray" stop-opacity=".122"/><stop offset="1" stop-color="gray" stop-opacity=".102"/></linearGradient></defs><g id="Grupo_4" data-name="Grupo 4" transform="translate(-855 -1196)"><g id="contact-1" transform="translate(813.995 1162.053)"><path id="Caminho_1" data-name="Caminho 1" d="M131.1 394.5c0-159.3 101.6-294.8 243.5-345.4" fill="none" stroke="#2196f3" stroke-miterlimit="10" stroke-width="4" stroke-dasharray="12" opacity=".21"/><path id="Caminho_2" data-name="Caminho 2" d="M672.3 716.8A364.994 364.994.0 0 1 497.6 761C378.1 761 271.9 703.8 205 615.2" fill="none" stroke="#2196f3" stroke-miterlimit="10" stroke-width="4" stroke-dasharray="12" opacity=".5"/><g id="Grupo_1" data-name="Grupo 1" opacity=".21"><path id="Caminho_3" data-name="Caminho 3" d="M734.8 463.6c-.6 1.9-1.1 3.8-1.8 5.7" fill="none" stroke="#2196f3" stroke-miterlimit="10" stroke-width="4"/><path id="Caminho_4" data-name="Caminho 4" d="M729.2 480.7c-35 93.9-125.5 160.8-231.6 160.8-136.4.0-247-110.6-247-247s110.6-247 247-247a245.88 245.88.0 0 1 149.8 50.6" fill="none" stroke="#2196f3" stroke-miterlimit="10" stroke-width="4" stroke-dasharray="11.95 11.95"/><path id="Caminho_5" data-name="Caminho 5" d="M652.1 201.8c1.6 1.3 3.1 2.5 4.6 3.8" fill="none" stroke="#2196f3" stroke-miterlimit="10" stroke-width="4"/></g><g id="Grupo_2" data-name="Grupo 2" opacity=".5"><path id="Caminho_6" data-name="Caminho 6" d="M476.6 256.1c2-.3 4-.5 6-.8" fill="none" stroke="#2196f3" stroke-miterlimit="10" stroke-width="4"/><path id="Caminho_7" data-name="Caminho 7" d="M494.1 254.5h3.5A140.05 140.05.0 0 1 619.9 462.7" fill="none" stroke="#2196f3" stroke-miterlimit="10" stroke-width="4" stroke-dasharray="11.56 11.56"/><path id="Caminho_8" data-name="Caminho 8" d="M616.9 467.7a53.925 53.925.0 0 1-3.3 5" fill="none" stroke="#2196f3" stroke-miterlimit="10" stroke-width="4"/></g><path id="Caminho_9" data-name="Caminho 9" d="M48.5 151.1 322.8 34.9a12.386 12.386.0 0 1 16.1 6.5L556.3 554.7a12.386 12.386.0 0 1-6.5 16.1L275.4 687a12.386 12.386.0 0 1-16.1-6.5L42 167.1a12.155 12.155.0 0 1 6.5-16z" fill="url(#linear-gradient)"/><path id="Caminho_10" data-name="Caminho 10" d="M56.8 156.1 320.6 44.4a13.742 13.742.0 0 1 17.9 7.2L548.6 547.9a13.742 13.742.0 0 1-7.2 17.9L277.6 677.5a13.742 13.742.0 0 1-17.9-7.2L49.6 174A13.673 13.673.0 0 1 56.8 156.1z" fill="#fff"/><path id="Caminho_11" data-name="Caminho 11" d="M268 86.5a25.427 25.427.0 0 1-14.6 29.7l-99.8 42.3a25.3 25.3.0 0 1-31.5-10.1L69.3 170.8A11.819 11.819.0 0 0 63 186.4h0L263.5 659.7a11.819 11.819.0 0 0 15.6 6.3h0L531.5 559.1a11.819 11.819.0 0 0 6.3-15.6h0L337.3 70.1a11.819 11.819.0 0 0-15.6-6.3h0z" fill="#7b5eea"/><path id="Caminho_12" data-name="Caminho 12" d="M167 132.2l60.6-25.7a1.948 1.948.0 0 1 2.6 1.1l.1.3a1.948 1.948.0 0 1-1.1 2.6l-60.7 25.7a1.948 1.948.0 0 1-2.6-1.1l-.1-.3A2.122 2.122.0 0 1 167 132.2z" fill="#dbdbdb"/><circle id="Elipse_1" data-name="Elipse 1" cx="2.6" cy="2.6" r="2.6" transform="translate(241.2 99)" fill="#dbdbdb"/><g id="Grupo_3" data-name="Grupo 3" opacity=".2"><path id="Caminho_15" data-name="Caminho 15" d="M170.4 161.5l99.8-42.3a25.321 25.321.0 0 0 14.6-29.7l51-21.6-.8-1.8a11.819 11.819.0 0 0-15.6-6.3h0L265.8 82.5a25.427 25.427.0 0 1-14.6 29.7l-99.8 42.3a24.441 24.441.0 0 1-8.4 1.9A25.442 25.442.0 0 0 170.4 161.5z" fill="#fff"/><path id="Caminho_16" data-name="Caminho 16" d="M79.7 189.3A11.9 11.9.0 0 1 86 173.7h0l45.5-19.3a25.08 25.08.0 0 1-11.7-10.1L66.9 166.7a11.819 11.819.0 0 0-6.3 15.6h0L261.1 655.6a11.819 11.819.0 0 0 15.6 6.3h0l2.6-1.1z" fill="#fff"/></g></g><path id="iconmonstr-whatsapp-1" d="M.057 149.591l10.515-38.414a74.121 74.121.0 1 1 28.784 28.1L.057 149.591zm41.119-23.729c10.446 6.2 20.419 9.917 33.608 9.923A61.635 61.635.0 1 0 13.2 74.122c-.006 13.868 4.058 24.252 10.883 35.116l-6.227 22.738 23.324-6.115zM112.15 91.805c-.461-.773-1.7-1.234-3.553-2.163s-10.958-5.41-12.659-6.027-2.929-.929-4.17.929-4.787 6.027-5.865 7.261-2.163 1.39-4.014.461a50.552 50.552.0 0 1-14.9-9.194 55.756 55.756.0 0 1-10.3-12.834c-1.078-1.851-.112-2.855.81-3.777.835-.829 1.851-2.163 2.78-3.247a12.15 12.15.0 0 0 1.87-3.085 3.405 3.405.0 0 0-.156-3.247c-.467-.922-4.17-10.041-5.709-13.75-1.508-3.609-3.035-3.123-4.17-3.179l-3.553-.062a6.786 6.786.0 0 0-4.936 2.319 20.783 20.783.0 0 0-6.482 15.451c0 9.119 6.638 17.926 7.561 19.16s13.058 19.945 31.638 27.967a107.169 107.169.0 0 0 10.559 3.9 25.459 25.459.0 0 0 11.668.735c3.559-.53 10.958-4.481 12.5-8.807s1.546-8.041 1.078-8.813z" transform="matrix(0.966, -0.259, 0.259, 0.966, 1030.965, 1479.589)" fill="#fff"/></g></svg>