<svg xmlns="http://www.w3.org/2000/svg" width="297.498" height="400.571" viewBox="0 0 297.498 400.571">
  <g id="Grupo_7" data-name="Grupo 7" transform="translate(-2426.693 -5375.968)">
    <g id="Caminho_2" data-name="Caminho 2" transform="translate(2576.617 5505.761) rotate(45)" fill="none">
      <path d="M23.442.558l139.383,3.32a24.836,24.836,0,0,1,24,24l3.914,164.32L27.914,188.32a24.836,24.836,0,0,1-24-24L.558,23.442A22.138,22.138,0,0,1,23.442.558Z" stroke="none"/>
      <path d="M 22.87281799316406 0.5515899658203125 L 22.87281799316406 17.55158996582031 C 20.9227294921875 17.55158996582031 19.69523620605469 18.38946533203125 19.00889587402344 19.09234619140625 C 18.31893920898438 19.79891967773438 17.50636291503906 21.05683898925781 17.55352783203125 23.03680419921875 L 20.90924072265625 163.9155883789062 C 21.00106811523438 167.7709655761719 24.46353149414062 171.2334289550781 28.31890869140625 171.3252563476562 L 173.3186645507812 174.7790985107422 L 169.8291473388672 28.28326416015625 C 169.7373199462891 24.42788696289062 166.2748107910156 20.96546936035156 162.4194793701172 20.87359619140625 L 23.03623962402344 17.55355834960938 L 22.87281799316406 0.5515899658203125 M 22.87281799316406 0.551605224609375 C 23.06205749511719 0.551605224609375 23.25117492675781 0.5538482666015625 23.44160461425781 0.558380126953125 L 162.8243255615234 3.878433227539062 C 175.7707366943359 4.186843872070312 186.5159454345703 14.9320068359375 186.8243255615234 27.87843322753906 L 190.7384033203125 192.1988372802734 L 27.9140625 188.3204193115234 C 14.96760559082031 188.0120544433594 4.222442626953125 177.2668914794922 3.9140625 164.3204345703125 L 0.5583648681640625 23.44163513183594 C 0.2545166015625 10.68560791015625 10.19680786132812 0.551605224609375 22.87281799316406 0.551605224609375 Z" stroke="none" fill="#7b5eea"/>
    </g>
    <g id="Caminho_1" data-name="Caminho 1" transform="translate(2575.009 5372.858) rotate(45)" fill="none">
      <path d="M203.864,98.219l9.3,84.324a28.507,28.507,0,0,1-29.238,29.407l-86.2-6.978L2.205,108.945,103.546,102l4.8-99.8Z" stroke="none"/>
      <path d="M 123.4744873046875 41.50804138183594 L 120.5265808105469 102.8135986328125 L 119.8000793457031 117.9226379394531 L 104.708984375 118.957275390625 L 40.5201416015625 123.3579864501953 L 105.3512573242188 188.5335845947266 L 184.5365295410156 194.9552764892578 C 187.7417144775391 194.9552764892578 190.6950378417969 193.7428283691406 192.8524780273438 191.5412750244141 C 194.9218292236328 189.4296569824219 196.0855712890625 186.5910034179688 196.1643981933594 183.4944305419922 L 187.6178131103516 105.9922332763672 L 123.4744873046875 41.50804138183594 M 108.3453521728516 2.192916870117188 L 203.8636169433594 98.21878051757812 L 213.1624450683594 182.5423736572266 C 213.4937133789062 198.9104919433594 200.7295684814453 211.9552917480469 184.5365142822266 211.9552917480469 C 184.3323364257812 211.9552917480469 184.1295013427734 211.9532470703125 183.9242553710938 211.9490966796875 L 97.72339630126953 204.9707794189453 L 2.205078125 108.9449157714844 L 103.5462112426758 101.9970932006836 L 108.3453521728516 2.192916870117188 Z" stroke="none" fill="#7b5eea"/>
    </g>
    <line id="Linha_1" data-name="Linha 1" y1="226.699" transform="translate(2575.869 5525.12)" fill="none" stroke="#7b5eea" stroke-width="17"/>
  </g>
</svg>
