<?xml version="1.0" encoding="UTF-8"?>
<svg width="32px" height="32px" viewBox="0 0 32 32" version="1.1" xmlns="http://www.w3.org/2000/svg" xmlns:xlink="http://www.w3.org/1999/xlink">
    <!-- Generator: Sketch 57.1 (83088) - https://sketch.com -->
    <title>Group 1117</title>
    <desc>Created with Sketch.</desc>
    <g id="Extra-1" stroke="none" stroke-width="1" fill="none" fill-rule="evenodd">
        <g id="Icons" transform="translate(-546.000000, -134.000000)">
            <g id="Group-1117" transform="translate(547.000000, 135.000000)">
                <g id="Group-622">
                    <polygon id="Stroke-6558" stroke="#43398D" stroke-width="1.5" stroke-linecap="round" stroke-linejoin="round" points="0.520833333 24.4791667 24.4791667 24.4791667 24.4791667 19.2708333 0.520833333 19.2708333"></polygon>
                    <polygon id="Stroke-6559" stroke="#43398D" stroke-width="1.5" stroke-linecap="round" stroke-linejoin="round" points="21.3541667 13.0208333 3.64583333 13.0208333 0.520833333 19.2708333 24.4791667 19.2708333"></polygon>
                    <polyline id="Stroke-6560" stroke="#43398D" stroke-width="1.5" stroke-linecap="round" stroke-linejoin="round" points="8.85416667 22.3958333 8.85416667 21.3541667 15.1041667 21.3541667 15.1041667 22.3958333"></polyline>
                    <polygon id="Fill-6561" fill="#43398D" points="7.29166667 17.7083333 8.33333333 17.7083333 8.33333333 16.6666667 7.29166667 16.6666667"></polygon>
                    <polygon id="Fill-6562" fill="#43398D" points="4.16666667 17.7083333 5.20833333 17.7083333 5.20833333 16.6666667 4.16666667 16.6666667"></polygon>
                    <polygon id="Fill-6563" fill="#43398D" points="10.4166667 17.7083333 11.4583333 17.7083333 11.4583333 16.6666667 10.4166667 16.6666667"></polygon>
                    <polygon id="Fill-6564" fill="#43398D" points="13.5416667 17.7083333 14.5833333 17.7083333 14.5833333 16.6666667 13.5416667 16.6666667"></polygon>
                    <polygon id="Fill-6565" fill="#43398D" points="16.6666667 17.7083333 17.7083333 17.7083333 17.7083333 16.6666667 16.6666667 16.6666667"></polygon>
                    <polygon id="Fill-6566" fill="#43398D" points="19.7916667 17.7083333 20.8333333 17.7083333 20.8333333 16.6666667 19.7916667 16.6666667"></polygon>
                    <polygon id="Fill-6567" fill="#43398D" points="16.6666667 15.625 17.7083333 15.625 17.7083333 14.5833333 16.6666667 14.5833333"></polygon>
                    <polygon id="Fill-6568" fill="#43398D" points="13.5416667 15.625 14.5833333 15.625 14.5833333 14.5833333 13.5416667 14.5833333"></polygon>
                    <polygon id="Fill-6569" fill="#43398D" points="10.4166667 15.625 11.4583333 15.625 11.4583333 14.5833333 10.4166667 14.5833333"></polygon>
                    <polygon id="Fill-6570" fill="#43398D" points="7.29166667 15.625 8.33333333 15.625 8.33333333 14.5833333 7.29166667 14.5833333"></polygon>
                    <polygon id="Stroke-6571" stroke="#43398D" stroke-width="1.5" stroke-linecap="round" stroke-linejoin="round" points="3.64583333 13.0208333 21.3541667 13.0208333 21.3541667 6.77083333 3.64583333 6.77083333"></polygon>
                    <polygon id="Stroke-6572" stroke="#43398D" stroke-width="1.5" stroke-linecap="round" stroke-linejoin="round" points="5.72916667 10.9375 11.4583333 10.9375 11.4583333 8.85416667 5.72916667 8.85416667"></polygon>
                    <path d="M14.5833333,9.89583333 L19.2708333,9.89583333" id="Stroke-6573" stroke="#43398D" stroke-width="1.5" stroke-linecap="round" stroke-linejoin="round"></path>
                    <polygon id="Stroke-6574" stroke="#43398D" stroke-width="1.5" stroke-linecap="round" stroke-linejoin="round" points="9.89583333 2.60416667 5.72916667 3.64583333 5.72916667 6.77083333 9.89583333 6.77083333"></polygon>
                    <path d="M21.3541667,2.60416667 C21.3541667,3.17708333 20.8864583,3.64583333 20.3125,3.64583333 L16.1458333,3.64583333 C15.5729167,3.64583333 15.1041667,3.17708333 15.1041667,2.60416667 L15.1041667,1.5625 C15.1041667,0.990625 15.5729167,0.520833333 16.1458333,0.520833333 L20.3125,0.520833333 C20.8864583,0.520833333 21.3541667,0.990625 21.3541667,1.5625 L21.3541667,2.60416667 L21.3541667,2.60416667 Z" id="Stroke-6575" stroke="#43398D" stroke-width="1.5" stroke-linecap="round" stroke-linejoin="round"></path>
                    <path d="M18.2291667,3.64583333 L18.2291667,6.77083333" id="Stroke-6576" stroke="#43398D" stroke-width="1.5" stroke-linecap="round" stroke-linejoin="round"></path>
                </g>
                <g id="Group-1118" transform="translate(15.000000, 15.000000)" stroke="#719051" stroke-linejoin="round">
                    <path d="M15,7.5 C15,11.643 11.643,15 7.5,15 C3.357,15 0,11.643 0,7.5 C0,3.3585 3.357,0 7.5,0 C11.643,0 15,3.3585 15,7.5 L15,7.5 Z" id="Stroke-4435" fill="#C3F193"></path>
                    <polyline id="Stroke-4434" stroke-linecap="round" points="11.25 5.25 6.75 9.75 3.75 6.75"></polyline>
                </g>
            </g>
        </g>
    </g>
</svg>