<?xml version="1.0" encoding="UTF-8"?>
<svg width="32px" height="29px" viewBox="0 0 32 29" version="1.1" xmlns="http://www.w3.org/2000/svg" xmlns:xlink="http://www.w3.org/1999/xlink">
    <!-- Generator: Sketch 57.1 (83088) - https://sketch.com -->
    <title>Group 1119</title>
    <desc>Created with Sketch.</desc>
    <g id="Extra-1" stroke="none" stroke-width="1" fill="none" fill-rule="evenodd" stroke-linejoin="round">
        <g id="Icons" transform="translate(-557.000000, -188.000000)">
            <g id="Group-1119" transform="translate(558.000000, 189.000000)">
                <g id="Group-672" stroke="#43398D" stroke-linecap="round" stroke-width="1.5">
                    <path d="M18.2291667,19.7916667 C18.2291667,20.6541667 18.9291667,21.3541667 19.7916667,21.3541667 C20.6541667,21.3541667 21.3541667,20.6541667 21.3541667,19.7916667 C21.3541667,18.9291667 20.6541667,18.2291667 19.7916667,18.2291667 C18.9291667,18.2291667 18.2291667,18.9291667 18.2291667,19.7916667 L18.2291667,19.7916667 Z" id="Stroke-1296"></path>
                    <path d="M6.77083333,19.7916667 C6.77083333,20.6541667 7.47083333,21.3541667 8.33333333,21.3541667 C9.19583333,21.3541667 9.89583333,20.6541667 9.89583333,19.7916667 C9.89583333,18.9291667 9.19583333,18.2291667 8.33333333,18.2291667 C7.47083333,18.2291667 6.77083333,18.9291667 6.77083333,19.7916667 L6.77083333,19.7916667 Z" id="Stroke-1297"></path>
                    <polyline id="Stroke-1298" points="0.520833333 0.520833333 4.16666667 0.520833333 8.33333333 18.2291667 19.7916667 18.2291667"></polyline>
                    <polyline id="Stroke-1299" points="7.84302083 16.1458333 21.3544792 16.1458333 24.4794792 6.77083333 5.6378125 6.77083333"></polyline>
                </g>
                <g id="Group-1118" transform="translate(15.000000, 12.000000)" stroke="#719051">
                    <path d="M15,7.5 C15,11.643 11.643,15 7.5,15 C3.357,15 0,11.643 0,7.5 C0,3.3585 3.357,0 7.5,0 C11.643,0 15,3.3585 15,7.5 L15,7.5 Z" id="Stroke-4435" fill="#C3F193"></path>
                    <polyline id="Stroke-4434" stroke-linecap="round" points="11.25 5.25 6.75 9.75 3.75 6.75"></polyline>
                </g>
            </g>
        </g>
    </g>
</svg>