<?xml version="1.0" encoding="UTF-8"?>
<svg width="27px" height="27px" viewBox="0 0 27 27" version="1.1" xmlns="http://www.w3.org/2000/svg" xmlns:xlink="http://www.w3.org/1999/xlink">
    <!-- Generator: Sketch 57.1 (83088) - https://sketch.com -->
    <title>Group 684</title>
    <desc>Created with Sketch.</desc>
    <g id="Extra-1" stroke="none" stroke-width="1" fill="none" fill-rule="evenodd" stroke-linecap="round" stroke-linejoin="round">
        <g id="Icons" transform="translate(-546.000000, -73.000000)" stroke="#7464E2" stroke-width="1.5">
            <g id="Group-684" transform="translate(547.000000, 74.000000)">
                <path d="M14.6992708,17.7367708 C15.5398958,18.5773958 16.8982292,18.5753125 17.7378125,17.7378125 C18.5763542,16.8992708 18.5784375,15.5398958 17.7378125,14.6982292 C16.8992708,13.8617708 15.5388542,13.8607292 14.6992708,14.6992708 C13.8596875,15.5378125 12.5013542,15.5398958 11.6607292,14.6982292 C10.8242708,13.8617708 10.8221875,12.4992708 11.6607292,11.6607292 C12.4992708,10.8221875 13.8617708,10.8232292 14.6992708,11.6607292" id="Stroke-8231"></path>
                <path d="M17.7378125,17.7378125 L18.7503125,18.7503125" id="Stroke-8232"></path>
                <path d="M10.6476042,10.6490625 L11.6611458,11.6605208" id="Stroke-8233"></path>
                <polygon id="Stroke-8234" points="24.4791667 15.64125 15.640625 24.47875 2.62083333 11.4579167 2.6125 2.61104167 11.4583333 2.61104167"></polygon>
                <path d="M9.90395833,7.8190625 C9.90395833,8.9690625 8.970625,9.90239583 7.820625,9.90239583 C6.670625,9.90239583 5.73729167,8.9690625 5.73729167,7.8190625 C5.73729167,6.6690625 6.670625,5.73572917 7.820625,5.73572917 C8.970625,5.73572917 9.90395833,6.6690625 9.90395833,7.8190625 L9.90395833,7.8190625 Z" id="Stroke-8235"></path>
                <path d="M0.520833333,0.520833333 L7.29166667,7.29166667" id="Stroke-8236"></path>
            </g>
        </g>
    </g>
</svg>