<?xml version="1.0" encoding="UTF-8"?>
<svg width="26px" height="31px" viewBox="0 0 26 31" version="1.1" xmlns="http://www.w3.org/2000/svg" xmlns:xlink="http://www.w3.org/1999/xlink">
    <!-- Generator: Sketch 57.1 (83088) - https://sketch.com -->
    <title>Group 33</title>
    <desc>Created with Sketch.</desc>
    <g id="Basic" stroke="none" stroke-width="1" fill="none" fill-rule="evenodd" stroke-linecap="round" stroke-linejoin="round">
        <g id="Icons" transform="translate(-338.000000, -143.000000)" stroke="#7464E2" stroke-width="1.5">
            <g id="Group-33" transform="translate(351.000000, 158.500000) rotate(-90.000000) translate(-351.000000, -158.500000) translate(336.000000, 146.000000)">
                <path d="M9.536125,20 C9.536125,17.5825 7.578625,15.625 5.161125,15.625 C2.743625,15.625 0.786125,17.5825 0.786125,20 C0.786125,22.415 2.743625,24.375 5.161125,24.375 C7.578625,24.375 9.536125,22.415 9.536125,20 L9.536125,20 Z" id="Stroke-199"></path>
                <path d="M16.411125,12.5 L29.213625,4.89 C28.513625,3.70125 26.772375,3.2525 25.582375,3.9525 L5.696125,15.6575" id="Stroke-200"></path>
                <path d="M9.536125,5 C9.536125,7.415 7.578625,9.375 5.161125,9.375 C2.743625,9.375 0.786125,7.415 0.786125,5 C0.786125,2.5825 2.743625,0.625 5.161125,0.625 C7.578625,0.625 9.536125,2.5825 9.536125,5 L9.536125,5 Z" id="Stroke-201"></path>
                <path d="M13.774375,10.91425 L29.214375,20.108 C28.513125,21.29675 26.771875,21.748 25.581875,21.0455 L5.785625,9.3755" id="Stroke-202"></path>
            </g>
        </g>
    </g>
</svg>